<svg t="1772961957693" class="icon" viewBox="0 0 1024 1024" version="1.1" xmlns="http://www.w3.org/2000/svg"
  p-id="33430" width="144" height="144">
  <path
    d="M864 448h-48V304C816 136.4 679.6 0 512 0S208 136.4 208 304v144h-48c-53 0-96 43-96 96v384c0 53 43 96 96 96h704c53 0 96-43 96-96V544c0-53-43-96-96-96zM592 784c0 44.2-35.8 80-80 80s-80-35.8-80-80v-96c0-44.2 35.8-80 80-80s80 35.8 80 80v96z m64-336H368V304c0-79.4 64.6-144 144-144s144 64.6 144 144v144z"
    fill="currentColor" p-id="33431"></path>
</svg>
