<svg t="1772962022469" class="icon" viewBox="0 0 1024 1024" version="1.1" xmlns="http://www.w3.org/2000/svg"
  p-id="33591" width="144" height="144">
  <path
    d="M863.998469 512.00098H367.999418V305.801375c0-79.199848 63.399879-144.999722 142.599727-145.799721 79.999847-0.799998 145.399722 64.199877 145.399722 143.999724v31.999939c0 26.599949 21.399959 47.999908 47.999908 47.999908h63.999878c26.599949 0 47.999908-21.399959 47.999908-47.999908v-31.999939C815.998561 136.0017 678.998823-0.598039 510.999144 0.00196 342.999466 0.601959 207.999724 139.001694 207.999724 307.001372V512.00098H159.999816c-52.999899 0-95.999816 42.999918-95.999816 95.999816v319.999388c0 52.999899 42.999918 95.999816 95.999816 95.999816h703.998653c52.999899 0 95.999816-42.999918 95.999816-95.999816V608.000796c0-52.999899-42.999918-95.999816-95.999816-95.999816zM591.998989 816.000398c0 44.199915-35.799931 79.999847-79.999846 79.999847s-79.999847-35.799931-79.999847-79.999847v-95.999816c0-44.199915 35.799931-79.999847 79.999847-79.999847s79.999847 35.799931 79.999846 79.999847v95.999816z"
    fill="currentColor" p-id="33592"></path>
</svg>
