<svg t="1773510819900" class="icon" viewBox="0 0 1024 1024" version="1.1" xmlns="http://www.w3.org/2000/svg" p-id="3858"
  width="144" height="144">
  <path d="M29.181618 341.573265h965.527771a511.944736 511.944736 0 0 0-965.527771 0z" fill="#CE1126" p-id="3859">
  </path>
  <path
    d="M994.709389 683.040403H29.181618a512.251902 512.251902 0 0 0 965.527771 0z m-965.527771 0h965.527771v-0.511944H29.181618z"
    p-id="3860"></path>
  <path
    d="M0.000768 512.050862a507.388427 507.388427 0 0 0 29.18085 170.477597h965.527771a512.559069 512.559069 0 0 0 0-340.955194H29.181618A507.388427 507.388427 0 0 0 0.000768 512.050862z"
    fill="#FFFFFF" p-id="3861"></path>
  <path
    d="M592.320827 646.180382c-1.023889 0-2.047779 0.511945-2.047779 1.535835s4.607503 2.047779 5.119447 0-2.047779-1.535834-3.071668-1.535835z m-14.334453-28.668905c0.511945 0.511945 0.511945 1.023889 1.02389 1.535834 2.559724-1.023889 5.119447-1.535834 7.679171-2.559723a3.071668 3.071668 0 0 1-0.511945-2.047779 26.77471 26.77471 0 0 0-8.191116 3.071668z m-13.822507 4.095558c0 0.511945 0.511945 1.023889 0.511944 2.047779l9.215006-2.559724v-2.047779a21.194512 21.194512 0 0 0-9.72695 2.559724z"
    fill="#FCD116" p-id="3862"></path>
  <path
    d="M594.880551 641.060935c0 0.511945 0.511945 0.511945 0 0a2.457335 2.457335 0 0 1-3.583613 0 10.238895 10.238895 0 0 1-2.047779-4.095558 20.989734 20.989734 0 0 1-0.511945-5.631392 7.269615 7.269615 0 0 0-1.02389-3.071668 5.733781 5.733781 0 0 0-8.191115 0.511944l1.535834 1.535835a4.709892 4.709892 0 0 1 5.119447-0.511945c1.023889 1.023889 1.023889 4.095558 1.02389 6.143337a14.948786 14.948786 0 0 0 1.023889 4.607502l0.511945 1.02389-0.511945 0.511945-0.511945 0.511944a4.146752 4.146752 0 0 0-4.607502-1.535834 5.631392 5.631392 0 0 0-5.119448 3.071668v1.02389l-2.047778 1.023889a4.505114 4.505114 0 0 0-6.143337-2.559723c-0.511945-2.559724-1.023889-4.607503-1.535835-6.655282l-2.047778 0.511945 1.535834 7.167226a5.887364 5.887364 0 0 0-3.071669 5.631392c-1.023889 0-2.047779 0.511945-3.583613 0.511945 0-2.047779-0.511945-4.095558-2.559723-4.095558a2.662113 2.662113 0 0 0-2.047779 1.02389 4.197947 4.197947 0 0 0-2.047779 3.071668c0 2.047779 2.047779 2.559724 4.607502 2.559724a3.839586 3.839586 0 0 1-3.583613 3.071668 3.89078 3.89078 0 0 0 1.02389 2.047779 5.119447 5.119447 0 0 0 4.095557-5.119447 46.075026 46.075026 0 0 0 8.191116-1.535834c0 0.511945 0.511945 1.023889 0.511945 1.535834a3.839586 3.839586 0 0 0 2.559724 0.511944 3.941974 3.941974 0 0 0 3.583613-4.095557c1.023889-0.511945 1.535834-0.511945 2.047779-1.02389 0.511945 0.511945 1.023889 1.023889 1.535834 1.02389a6.040948 6.040948 0 0 0 7.679171-3.071669l2.559724-1.535834a6.501698 6.501698 0 0 0 6.143336 0 7.525588 7.525588 0 0 0 2.047779-1.02389v-2.047778a0.972695 0.972695 0 0 0-1.535834-0.511945c-0.511945-2.047779-1.023889-0.511945-1.023889-0.511945z m-35.324187 8.703061c-1.023889-0.511945-2.047779 0.511945-2.559724-0.511945s1.535834-1.535834 2.047779-2.047779a5.580198 5.580198 0 0 1 0.511945 2.559724z m7.679171-1.02389a4.402725 4.402725 0 0 1 1.535834-3.071668c0 1.023889 0.511945 1.535834 0.511945 2.559723l-2.047779 0.511945z m3.071668-3.583613c0.511945 0 0.511945-0.511945 1.02389-0.511945 1.535834 0 2.559724 0.511945 2.559724 2.047779-1.023889 0.511945-2.047779 0.511945-2.559724 1.02389a3.89078 3.89078 0 0 1-1.02389-2.559724z m3.583614 4.095558c-0.511945 1.023889-1.535834 1.023889-2.559724 0.511945a5.580198 5.580198 0 0 1 2.559724-0.511945z m6.655281-3.071669c-0.511945-0.511945-1.023889-1.023889-1.023889-1.535834s2.559724-2.047779 4.095558-2.047779a3.071668 3.071668 0 0 1 2.047778 0.511945c0.511945 2.559724-3.071668 4.095558-5.119447 3.071668z m-31.228629-1.023889c-2.047779-0.511945-2.559724 1.535834-2.559723 3.071668s2.047779 3.583613 3.583613 4.607503a17.04776 17.04776 0 0 1-3.071669 5.119447l1.535835 1.535835a16.126259 16.126259 0 0 0 4.607502-8.703061 3.839586 3.839586 0 0 0-0.511945-2.559724 16.331037 16.331037 0 0 0-3.583613-3.071668z m-0.511944 2.047779c1.023889 0.511945 2.559724 1.535834 2.047778 3.071668-1.023889-0.511945-2.559724-1.023889-2.047778-3.071668z m-8.191116-0.511945a3.89078 3.89078 0 0 0 1.023889 2.047779l0.511945 0.511945v1.023889a3.839586 3.839586 0 0 1-0.511945 2.559724c-0.511945 0.511945-1.023889 0.511945-2.047779 0.511945s-2.047779 1.023889-2.559723 0v-1.02389a0.511945 0.511945 0 0 0-0.511945-0.511944 25.597237 25.597237 0 0 0-0.511945-10.75084 1.894196 1.894196 0 0 0-0.511945-1.535834l-2.047779 0.511945a41.979468 41.979468 0 0 1 1.02389 11.262784 5.37542 5.37542 0 0 0-4.607503 2.559723c0 3.071668 4.607503 2.559724 5.631392 0.511945a3.89078 3.89078 0 0 0 2.559724 1.02389c0.511945 0 1.535834-0.511945 2.047779-0.511945h2.047779a4.812281 4.812281 0 0 0 2.559724-4.607503v-3.071668c-0.511945-2.559724-4.095558-2.559724-4.095558-0.511945z m-8.191116 6.655282a1.791807 1.791807 0 0 0 1.023889-0.511945c0 0.511945-0.511945 0.511945-1.023889 0.511945z m8.70306-29.692795l-1.535834 1.535834a0.511945 0.511945 0 0 0-0.511944 0.511945h11.262784c0-0.511945 0.511945-1.023889 0.511944-2.047779a10.853228 10.853228 0 0 0-9.72695 0z m-9.215005 0.511945h-5.119447v2.047779l12.286674 1.535834a13.566535 13.566535 0 0 0-3.071669-2.559724 5.529003 5.529003 0 0 0-4.095558-1.023889z m8.191116 32.252518a3.89078 3.89078 0 0 0-2.559724 1.02389c-2.047779 2.047779 1.023889 4.607503 3.071669 3.583613s1.535834-3.071668 1.023889-4.095558a1.894196 1.894196 0 0 0-1.535834-0.511945z"
    fill="#FCD116" p-id="3863"></path>
  <path
    d="M534.471072 656.419277c-2.559724 0-2.559724 4.095558-0.511945 4.607503 3.071668 1.023889 3.583613-5.119447 0.511945-4.607503z m-4.095558-13.822508c2.047779-0.511945 1.535834-4.607503-1.023889-4.607502s-2.047779 6.143337 1.023889 4.607502z m2.559724 2.559724c0.511945-1.535834-1.023889-2.047779-2.559724-2.047779s-2.559724 0.511945-2.559724 1.535834c0 2.559724 4.607503 2.559724 5.119448 0.511945z m-10.75084 3.583613a3.839586 3.839586 0 0 0-2.047779 4.607503 4.607503 4.607503 0 0 0-2.559723 0.511944c0-2.559724 0-5.119447-3.071669-5.119447a6.29692 6.29692 0 0 1-5.119447 1.02389 8.703061 8.703061 0 0 1-3.583613-0.511945l-1.02389-0.511945c-1.023889 0-2.047779 0.511945-3.071668 0 0-1.023889-0.511945-2.047779-1.535834-2.047779a1.894196 1.894196 0 0 0-1.02389 2.559724c0 0.511945 1.023889 0.511945 1.02389 1.023889v1.02389c0 1.023889-0.511945 2.559724-1.02389 2.559723h-2.047779v-1.535834c-0.511945-1.023889-1.023889-2.559724-2.047779-3.071668h-1.023889a2.201362 2.201362 0 0 0-2.047779 2.047779c0 2.047779 1.535834 3.071668 2.559724 4.095558a16.02387 16.02387 0 0 1-4.607503 5.631392c0.511945 0.511945 0.511945 1.023889 1.023889 1.535834a13.105785 13.105785 0 0 0 5.119448-6.655282c3.583613 0.511945 8.191116 0 11.774729 0.511945 0.511945 0 1.535834 0.511945 1.535834 1.02389v1.023889c0 0.511945 1.023889 1.023889 1.023889 1.02389a3.89078 3.89078 0 0 0 2.559724 1.023889c2.047779 0 2.047779-2.559724 3.071668-4.095558 1.535834 0 2.559724-1.023889 3.583614-0.511945s0.511945 0.511945 1.023889 0.511945a4.607503 4.607503 0 0 0 2.559724-0.511945c1.535834-0.511945 3.071668-1.535834 3.071668-2.559723v-1.535834a3.378835 3.378835 0 0 0-4.095558-3.071669z m-7.679171 7.679171a1.894196 1.894196 0 0 1-0.511944 1.535834c-0.511945 0-1.023889-0.511945-1.535835-1.023889-0.511945-4.095558-6.655282-2.559724-11.262784-3.071669a6.501698 6.501698 0 0 0 0.511945-3.071668h2.559724a1.791807 1.791807 0 0 1 1.023889 0.511945 14.232064 14.232064 0 0 0 9.215005 0 4.607503 4.607503 0 0 1 0.511945 2.559723c0.511945 1.023889-0.511945 2.047779-0.511945 2.559724z m8.191116-2.559724c-0.511945-1.023889-1.023889-2.047779 0-2.559723s2.047779 0 2.047779 1.023889-1.535834 1.023889-2.047779 1.535834z m-36.860021-26.109181l12.286674-1.535834v-2.047779h-5.119448a14.948786 14.948786 0 0 0-4.607502 1.023889l-2.559724 2.559724z m-0.511945 25.597237h2.047779c0-4.607503 1.535834-9.215005 1.535834-14.334453h-2.047778a122.866737 122.866737 0 0 0-1.535835 14.334453z m-9.215005-27.645016l0.511945 0.511945a1.894196 1.894196 0 0 1 1.535834-0.511945h7.679171c0-0.511945-1.023889-1.023889-1.023889-1.023889v-1.535835a11.262784 11.262784 0 0 1-4.095558-0.511944 11.774729 11.774729 0 0 0-7.167227 1.023889c0 0.511945 0.511945 1.023889 0.511945 2.047779 1.023889 0.511945 1.535834 0.511945 2.047779 0z m5.631392 23.037513a14.180869 14.180869 0 0 1-0.511945 4.607503l-1.535834 3.071668h-1.535834c-1.023889-0.511945-1.023889-2.047779-1.023889-3.071668a15.358342 15.358342 0 0 1-3.583614-2.559724 6.194531 6.194531 0 0 0 2.559724-2.559724h1.02389v-2.047779H476.109372a5.119447 5.119447 0 0 0-2.559724-4.095557 5.119447 5.119447 0 0 0-5.631392 2.559723h-1.023889v2.047779h1.023889a5.119447 5.119447 0 0 0 2.047779 3.583613 11.262784 11.262784 0 0 1-7.167226 0.511945c0-1.023889 0.511945-1.535834 0.511945-2.559724a3.89078 3.89078 0 0 0-1.02389-2.047779c-0.511945-1.023889-2.559724-1.535834-3.071668-1.023889a3.378835 3.378835 0 0 0 0.511945 3.071668 22.167207 22.167207 0 0 0 0.511944 2.559724 6.194531 6.194531 0 0 1-2.559723 2.559724c0.511945 0.511945 0.511945 1.023889 1.023889 2.047779 1.535834-0.511945 2.559724-2.047779 3.583613-3.071669a12.849813 12.849813 0 0 0 9.72695-0.511944c1.023889 1.023889 2.559724 1.535834 3.583613 2.559723a4.658697 4.658697 0 0 0 1.535835 3.583613c0.511945 0 1.023889 0.511945 1.535834 0.511945a0.511945 0.511945 0 0 0 0.511944 0.511945 3.071668 3.071668 0 0 0 2.047779-0.511945 8.907838 8.907838 0 0 0 2.559724-7.679171V640.037046h-2.047779v8.70306z m-9.72695 0.511945c-0.511945-0.511945-1.023889-0.511945-1.535834-1.02389a1.894196 1.894196 0 0 1-0.511945-1.535834 3.481224 3.481224 0 0 1 2.047779-3.071668 2.866891 2.866891 0 0 1 2.559724 3.071668c0 1.535834-1.535834 2.047779-2.559724 2.559724z m-16.894176-7.167226c-1.023889 1.023889-1.023889 2.559724 0 3.071668s0.511945-0.511945 1.023889-0.511945c0 1.535834-1.023889 2.559724-1.535834 4.095558s-2.559724 0.511945-4.095558 0-2.559724-0.511945-2.559723-1.023889 0.511945-1.023889 0.511944-1.535835 0.511945-2.047779 1.02389-3.071668 1.023889-2.047779-0.511945-2.559724-1.535834 1.535834-1.535834 2.559724-0.511945 1.535834-0.511945 2.047779 0 0.511945-0.511945 1.023889 0 1.023889-0.511944 1.02389-2.559724-0.511945-3.583613-1.02389a3.89078 3.89078 0 0 1-1.02389-2.559723c0-0.511945 0.511945-1.023889 0.511945-1.535834a92.150052 92.150052 0 0 0 3.071668-11.262785l-2.047779-0.511944c-1.023889 3.071668-1.535834 6.655282-2.559723 9.72695-1.535834 0.511945-3.583613 1.023889-3.583614 3.071668a5.119447 5.119447 0 0 0 3.583614 4.095558 7.423199 7.423199 0 0 0 3.583613 1.023889 5.580198 5.580198 0 0 0 2.559723 0.511945 9.624561 9.624561 0 0 0 4.607503 2.047779h0.511945a3.993169 3.993169 0 0 0 5.631392-2.559724 9.470978 9.470978 0 0 0 1.023889-3.583613c-0.511945-2.047779-2.047779-3.071668-3.071668-2.559723z m-16.382232 1.535834a0.767917 0.767917 0 1 1 0-1.535834z m22.525569-22.013624a21.194512 21.194512 0 0 0-9.72695-2.559724c0 0.511945-0.511945 1.535834-0.511945 2.047779l9.215005 2.559724c0.511945-1.023889 0.511945-1.535834 1.02389-2.047779z m-12.286674 29.692795c-2.047779 0-2.559724 3.583613-0.511945 4.607502h0.511945c1.535834 0 3.071668-1.023889 3.071669-2.047779v-0.511944c-0.511945-1.535834-2.047779-2.559724-3.071669-2.047779z m-4.607503-1.535834h-1.023889a2.815696 2.815696 0 0 0-2.559724 1.535834c-0.511945 2.047779 2.047779 3.071668 3.583613 2.559723a1.126278 1.126278 0 0 0 1.02389-1.023889c0.511945-0.511945 0-2.047779-1.02389-3.071668z"
    fill="#FCD116" p-id="3864"></path>
  <path
    d="M440.273241 635.941488c0-1.535834-0.511945-2.047779-2.047779-2.047779s-3.071668 0.511945-2.559724 2.047779 4.607503 2.047779 4.607503 0z m-2.047779-18.941955l10.750839 3.583613v-0.511945a13.566535 13.566535 0 0 0-2.559724-3.071668 15.358342 15.358342 0 0 0-8.191115-2.559724v2.559724z m3.071668 15.870286c1.535834-2.047779-1.023889-4.095558-3.071668-3.583613-0.511945 0-0.511945 0.511945-1.02389 0.511945a2.457335 2.457335 0 0 0 0 3.583613 3.993169 3.993169 0 0 0 4.095558-0.511945z m-3.071668 15.870287c-0.511945 0-1.023889 0.511945-1.535835 1.02389a2.457335 2.457335 0 0 0 1.02389 3.071668c3.071668 1.023889 3.583613-4.607503 0.511945-4.095558z m163.822315-221.160126a22.269596 22.269596 0 0 1-3.583613 3.071669c-3.071668 2.559724-5.631392 5.119447-8.703061 7.679171-0.511945 0.511945-1.535834 1.023889-1.535834 1.535834a4.607503 4.607503 0 0 0 0.511945 2.559724 36.245687 36.245687 0 0 1 0.511945 7.167226c0.511945 16.382232 1.535834 32.252518 2.047779 48.122805 1.023889 22.013624 2.047779 45.563081 3.071668 67.576705 0.511945 9.215005 0.511945 17.918066 1.023889 27.645016v1.023889l1.02389 1.02389 10.750839 9.215005c1.023889 1.023889 2.559724 2.047779 3.583614 3.071669v-1.535835l-1.535835-32.252518c-3.071668-48.63475-5.119447-96.757555-7.167226-145.90425z m-14.334453 70.136429c-1.023889-17.918066-1.535834-37.371966-2.559723-55.801976a26.825904 26.825904 0 0 1-5.631392 5.119447l-4.095558 3.583613c-0.511945 0.511945-1.023889 1.023889-1.02389 1.535835v1.535834c0.511945 15.358342 1.023889 30.716684 2.047779 46.075026 1.023889 16.382232 1.535834 32.252518 2.047779 47.61086 0.511945 9.72695 0.511945 19.4539 1.02389 29.18085v2.047779l1.535834 1.535835 10.750839 10.750839h0.511945v-2.559724c-0.511945-8.191116-1.023889-16.894176-1.023889-25.597236-2.047779-21.501679-2.559724-43.515303-3.583614-65.016982z m-84.470881-43.515302a92.150052 92.150052 0 0 1-10.750839 4.095557 113.651731 113.651731 0 0 1-26.109182 3.071669A148.463973 148.463973 0 0 0 470.989925 491.573072c7.167226 28.15696 20.989734 49.146695 41.979468 63.481147a96.603972 96.603972 0 0 0 32.764463-37.371965 133.105631 133.105631 0 0 0 12.798619-56.313921c-18.941955 0-34.812242-4.095558-45.051137-13.310563-3.583613 2.047779-7.167226 4.095558-10.238895 6.143337z m24.061403 82.423102v2.559724c0 0.511945-1.023889 1.535834-1.535835 2.047779a140.580024 140.580024 0 0 1-13.310563 11.262784 67.679094 67.679094 0 0 1-13.310563-11.262784c-0.511945-0.511945-1.535834-1.023889-1.535834-2.047779V458.808609c0-0.511945 1.535834-1.023889 2.047779-1.023889a62.918008 62.918008 0 0 0 12.798618-7.167227 60.460673 60.460673 0 0 0 14.846398 8.191116v77.8156z"
    fill="#FCD116" p-id="3865"></path>
  <path
    d="M626.10918 614.951754c-1.023889-22.013624-1.535834-42.491413-2.559724-63.993092-1.023889-17.918066-1.535834-36.860021-2.047779-54.778087-0.511945-12.286674-1.023889-24.061403-1.535834-36.348076-0.511945-8.703061-0.511945-18.43001-1.02389-27.133071s-4.095558-16.894176-11.774729-19.4539a35.47777 35.47777 0 0 0-17.918065 0.511944 91.126163 91.126163 0 0 0-14.846398 6.143337c-2.047779 1.023889-4.095558 2.559724-6.655281 4.095558a60.204701 60.204701 0 0 1-15.358342 5.119448 56.313921 56.313921 0 0 1-9.215006 1.023889h-0.511944c-0.511945 0-1.023889-1.023889-1.02389-1.023889a20.733762 20.733762 0 0 1-2.559723-4.607503 59.232006 59.232006 0 0 1-6.143337-22.525568v-8.191116c0-2.559724 0.511945-5.631392 0.511944-8.703061a43.771275 43.771275 0 0 0-2.047778-16.382231c0.511945 0 0-0.511945 0-0.511945-0.511945-1.023889-1.023889-1.535834-1.02389-2.559724a17.354927 17.354927 0 0 0-7.167226-7.679171 18.327622 18.327622 0 0 0-5.631392-2.047779c-0.511945-0.511945-1.023889 0-2.047779-0.511944s-2.559724-0.511945-4.095558-1.02389a14.180869 14.180869 0 0 0-4.607503-0.511945h-1.023889a12.901007 12.901007 0 0 0-7.679171 5.119448 42.644996 42.644996 0 0 0-7.679171-2.047779l-3.071669-1.535834a5.631392 5.631392 0 0 0-4.095558 0 9.470978 9.470978 0 0 0-6.655281 10.238894v2.559724c0-0.511945 0.511945-0.511945 1.023889-1.023889l1.02389-1.02389h0.511944a22.525568 22.525568 0 0 1 5.119448 1.02389 15.358342 15.358342 0 0 1 3.583613 2.559723 16.638204 16.638204 0 0 1 5.119447 6.655282 29.948767 29.948767 0 0 1 2.047779 9.72695v10.750839a54.726892 54.726892 0 0 1-13.310563 33.788353 60.409479 60.409479 0 0 1-25.085292-6.143337 46.740554 46.740554 0 0 1-6.655281-4.095558c-4.607503-2.047779-9.72695-4.095558-14.846398-6.143337a30.716684 30.716684 0 0 0-17.918066-0.511945 15.358342 15.358342 0 0 0-10.238894 10.75084 75.358265 75.358265 0 0 0-2.047779 18.43001c-0.511945 17.918066-1.535834 36.348076-2.559724 54.778087-0.511945 17.406121-1.535834 35.836131-2.047779 54.266142-1.023889 24.061403-2.047779 48.63475-3.071668 72.696153v0.511944c0.511945-0.511945 1.023889-1.023889 1.535834-1.023889a4.607503 4.607503 0 0 1 2.559724 0.511945h22.013623a9.470978 9.470978 0 0 0 1.02389 3.583613v2.047779c-4.607503 0-6.143337 3.583613-8.191116 5.631392-1.023889 1.023889-2.047779 2.559724-4.095558 2.047779v2.047779a1.894196 1.894196 0 0 1 1.535834 0.511944c1.023889 0.511945 1.023889 2.047779 1.535835 3.071669a10.238895 10.238895 0 0 0 5.631392 7.679171 9.419783 9.419783 0 0 0 4.095558 9.215005 9.880533 9.880533 0 0 0 5.119447 1.535834l5.119447 1.535834a179.180657 179.180657 0 0 0 23.037513 3.583614c15.870287 1.535834 30.716684 2.559724 47.610861 2.559723h11.774729c8.703061-0.511945 15.870287-0.511945 24.061402-1.023889a291.808499 291.808499 0 0 0 51.706419-6.655282c1.535834-0.511945 3.583613-1.023889 5.119447-1.535834a9.419783 9.419783 0 0 0 4.095558-9.215005 10.699645 10.699645 0 0 0 5.631392-8.191116 5.83617 5.83617 0 0 1 1.535834-3.071668c0.511945-0.511945 1.535834 0.511945 1.535834-0.511945v-2.047779h-1.535834a5.119447 5.119447 0 0 1-2.559724-2.047779c-2.047779-2.559724-3.583613-6.143337-8.191115-6.143337 0-0.511945-0.511945-1.023889-0.511945-2.047779a1.791807 1.791807 0 0 0 0.511945-1.023889c0.511945-1.023889 0.511945-2.047779 1.023889-3.071669h25.085292c0.511945 0 1.023889 1.023889 1.535834 1.02389v-1.02389c0-1.535834-0.511945-4.607503-0.511944-8.191115zM505.802167 363.074944a1.279862 1.279862 0 0 1 0.511944 2.047779c-0.511945 0-1.023889 0-1.023889-0.511945s0-1.023889 0.511945-1.535834z m-8.191116 30.204739a99.726834 99.726834 0 0 0-1.02389-12.798618v-0.511945a6.757671 6.757671 0 0 1 1.535835-5.631392c1.023889-0.511945 2.559724 1.535834 3.583613 1.535834a18.941955 18.941955 0 0 0-15.358342-12.798618 12.491452 12.491452 0 0 0-6.143337 0c-0.511945 0-1.023889 0.511945-1.535834 0.511944a6.194531 6.194531 0 0 1 8.70306-5.631392 2.662113 2.662113 0 0 1 2.047779 1.02389c1.023889 0.511945 1.535834 0.511945 2.559724 1.023889a9.880533 9.880533 0 0 1 5.119447 1.535834 6.860059 6.860059 0 0 1 3.583613 3.071669 9.010227 9.010227 0 0 0 4.607503 4.095558h1.023889a6.501698 6.501698 0 0 0 3.071669 0.511944 3.89078 3.89078 0 0 0 2.559724-1.023889 29.283239 29.283239 0 0 0 4.095557-3.583613 8.549477 8.549477 0 0 1 9.215006-0.511945c1.023889 0.511945 1.535834 1.023889 2.559723 1.535834a12.849813 12.849813 0 0 1 2.047779 3.583613 46.996527 46.996527 0 0 1 2.559724 14.334453 69.368512 69.368512 0 0 1-1.023889 10.238895 68.600595 68.600595 0 0 0 0.511944 10.238895 51.552835 51.552835 0 0 0 12.798619 31.740573 30.358323 30.358323 0 0 1-11.774729-2.559724c-0.511945-0.511945-1.023889-0.511945-1.535834-1.023889h-0.511945a57.133032 57.133032 0 0 1-5.631392-24.061403h-2.047779a54.061364 54.061364 0 0 0 6.655281 26.621127h0.511945a28.15696 28.15696 0 0 0 3.583613 4.607502 20.477789 20.477789 0 0 1-14.846397-10.238894 21.194512 21.194512 0 0 1-2.559724-9.72695 82.935047 82.935047 0 0 1-0.511945-11.262785h-2.047778a56.313921 56.313921 0 0 0 3.583613 22.525569 68.805372 68.805372 0 0 1-5.631392 7.167226c-1.535834-2.559724-3.583613-4.607503-5.119448-7.167226a55.904365 55.904365 0 0 0 4.095558-22.013624h-2.047779a87.030605 87.030605 0 0 1-0.511945 11.262784 30.307128 30.307128 0 0 1-2.559723 9.72695 20.477789 20.477789 0 0 1-14.846398 10.238895v-0.511945c1.023889-1.535834 2.047779-2.559724 3.071669-4.095558h0.511945a54.061364 54.061364 0 0 0 6.655281-26.621126h-2.047779a52.115974 52.115974 0 0 1-5.119447 23.037513 1.791807 1.791807 0 0 1-0.511945 1.02389c-0.511945 0-1.023889 0.511945-1.535834 0.511944a32.969241 32.969241 0 0 1-12.286674 2.559724 0.511945 0.511945 0 0 1 0.511945-0.511945 56.825866 56.825866 0 0 0 17.406121-41.979468z m102.900892 237.542357c3.583613 1.023889 4.607503 5.631392 7.679171 7.167227a25.597237 25.597237 0 0 0-2.047779 6.655281 7.269615 7.269615 0 0 1-4.607503 4.095558 24.931709 24.931709 0 0 1-0.511944 6.143337c-1.023889 3.583613-5.119447 4.095558-9.215006 4.607503a144.214832 144.214832 0 0 1-29.18085 4.607502c-8.191116 1.023889-16.894176 1.023889-24.573347 1.535834s-16.382232 0.511945-25.085292 0.511945c-17.918066 0-33.276408-0.511945-49.658639-2.047779a266.774402 266.774402 0 0 1-29.18085-4.607502c-2.047779-0.511945-3.583613-1.023889-5.119448-1.535835a5.426614 5.426614 0 0 1-3.583613-3.071668 24.931709 24.931709 0 0 1-0.511944-6.143337 6.245726 6.245726 0 0 1-4.607503-4.095558 28.873683 28.873683 0 0 0-2.047779-6.143337 12.081896 12.081896 0 0 0 4.095558-4.607502c1.023889-1.535834 2.559724-3.583613 4.095558-3.583613a3.839586 3.839586 0 0 1 2.559723 0.511944 13.61773 13.61773 0 0 1 1.535835-6.143336 35.272992 35.272992 0 0 0 4.095557-1.535835h3.583614a7.269615 7.269615 0 0 1 3.071668 1.02389c6.655282 1.535834 14.846397 3.071668 22.013624 4.607502 0.511945 2.559724 4.095558 3.071668 4.095558 6.143337h2.047779c0-2.047779 1.023889-2.559724 2.559723-3.071668 0.511945-0.511945 1.535834-1.023889 2.047779-1.535834a108.122728 108.122728 0 0 0 13.310563 1.023889 62.918008 62.918008 0 0 0 13.822508-1.023889 10.238895 10.238895 0 0 0 4.095558 4.095558c1.023889 0.511945 1.535834 1.535834 2.047779 2.047778v4.095558a13.566535 13.566535 0 0 0 4.095558-11.262784h4.607502a13.566535 13.566535 0 0 0 4.095558 11.262784 11.365173 11.365173 0 0 1 0.511945-4.607502c1.535834-2.047779 5.119447-3.071668 6.143337-5.631392a91.382135 91.382135 0 0 0 20.477789 0.511944l5.119448-0.511944h1.535834c0.511945 0 0.511945 0.511945 1.023889 1.023889 1.535834 1.023889 3.583613 1.023889 3.583614 3.583613h2.047778c0-3.583613 3.071668-3.583613 4.095558-6.655281l22.013624-4.607503c1.023889-0.511945 2.047779-0.511945 3.071668-1.023889h3.583614c0.511945 0 0.511945 0.511945 1.023889 0.511944s1.535834 0.511945 2.047779 1.02389a1.791807 1.791807 0 0 1 1.023889 0.511945 8.805449 8.805449 0 0 1 1.02389 6.143336z m-166.893984-10.238894a3.634808 3.634808 0 0 1-3.071668 1.535834l-3.071669 1.535834v-0.511945a8.139921 8.139921 0 0 1 7.167226-9.215005c0.511945 0 0 0.511945 0 1.02389-1.023889 1.535834 0 3.583613-1.023889 5.631392z m26.621126-45.051137c3.583613-3.071668 6.655282-6.143337 10.238895-9.215005 2.047779 4.607503 3.583613 9.215005 5.631392 13.310563 2.047779-4.095558 4.095558-7.679171 6.143337-11.262784l6.143337 19.965844 9.215005-9.215005c-1.535834 7.679171-3.071668 15.870287-5.119447 24.061403-1.023889-4.607503-2.047779-9.72695-3.071669-14.846398-3.583613 4.095558-7.167226 9.215005-10.750839 13.310563-1.535834-5.119447-3.583613-10.238895-5.119448-15.358342-3.071668 3.583613-6.143337 7.679171-9.215005 11.774729-2.559724-5.631392-4.607503-11.262784-7.167226-16.894176 0.511945-1.535834 1.023889-3.583613 1.535834-5.119447 1.023889-0.511945 1.023889 0 1.535834-0.511945z m129.010074 45.051137a28.873683 28.873683 0 0 1-6.143337 2.047779c-6.655282 1.535834-13.310563 3.071668-19.965845 4.095557a5.580198 5.580198 0 0 0-2.047779-4.607502 5.119447 5.119447 0 0 0-6.143337-1.535834 8.498283 8.498283 0 0 0-3.071668 8.191115 107.764367 107.764367 0 0 1-12.798618 1.02389 42.081857 42.081857 0 0 1-13.822508-1.02389 3.89078 3.89078 0 0 0-1.02389-2.047779c-0.511945-0.511945-1.023889-0.511945-1.023889-2.047778s1.023889-2.047779 1.535834-3.071669c-0.511945 0-0.511945-0.511945-1.02389-0.511945 1.535834-1.023889 3.583613 0 5.631393 0a45.255915 45.255915 0 0 0 11.774728 0 227.661824 227.661824 0 0 0 37.371966-6.143336c2.047779-0.511945 4.607503-1.535834 6.655282-2.047779h1.535834c0.511945 0.511945 0.511945 1.023889 1.023889 1.535834a3.071668 3.071668 0 0 1 0.511945 2.047779c1.023889 1.023889 0.511945 3.071668 1.02389 4.095558z m-31.740574 1.023889a4.402725 4.402725 0 0 1 3.583613 3.071669v1.535834c0.511945 2.559724-2.047779 3.071668-3.071668 5.119447a2.662113 2.662113 0 0 0-2.047779-1.023889 7.064837 7.064837 0 0 1-2.047779-1.535835 6.706476 6.706476 0 0 1 2.047779-6.655281 1.894196 1.894196 0 0 1 1.535834-0.511945z m-36.348076 2.047779a3.89078 3.89078 0 0 0 1.535834 4.095558 2.252557 2.252557 0 0 1 0.511945 2.559724c0 1.023889-1.535834 1.535834-2.559724 2.047779a6.860059 6.860059 0 0 0-3.583613 3.071668v-0.511945c-1.535834-4.095558 0-10.238895 4.095558-11.262784z m-26.109182-72.184208l2.559724-2.559723a54.214947 54.214947 0 0 1 6.143337 5.119447c-1.023889 4.607503-2.047779 9.215005-3.071669 14.334453-1.535834-4.095558-3.583613-9.215005-5.631392-13.822508-0.511945-0.511945-0.511945-1.023889-0.511944-2.047779s0.511945-1.023889 0.511944-1.02389z m-9.215005 8.191116l-1.535834-13.822508-1.535834-13.822508a85.392382 85.392382 0 0 0 12.798618 14.334453 80.477712 80.477712 0 0 1-9.72695 13.310563z m17.406121 52.218363c2.047779-12.798618 3.583613-26.109182 5.631392-38.395855-0.511945 11.262784-1.535834 23.549458-2.047779 35.836131v2.559724c0 0.511945 1.023889 1.535834 1.535834 2.047779l4.607503 6.143337c2.047779-2.047779 3.583613-4.607503 5.631392-6.655282 0.511945-0.511945 0.511945-0.511945 0.511945-1.023889v-2.559724c-0.511945-11.774729-1.535834-24.061403-2.047779-35.836131 1.023889 6.143337 2.047779 13.310563 2.559724 19.4539s1.535834 12.286674 2.559723 17.918065v1.02389c0 0.511945 1.023889 1.023889 1.535834 1.023889l4.607503 3.583614a30.716684 30.716684 0 0 0 4.095558-4.095558l1.535834 6.143336c-2.559724 0-5.119447-0.511945-7.679171-0.511944a7.167226 7.167226 0 0 0-4.607502 1.535834c-0.511945 0-0.511945 1.023889-1.02389 1.023889h-15.870287a1.126278 1.126278 0 0 1-1.023889-1.023889 7.167226 7.167226 0 0 0-4.607503-1.535834 36.245687 36.245687 0 0 1-7.679171 0.511944l1.535834-6.143336c0.511945-2.047779 0.511945 0 0 0l3.583613 3.583613a39.419745 39.419745 0 0 0 6.655282-4.607503z m36.348076-52.730308c-3.583613-4.095558-6.655282-8.703061-10.238894-12.798618a88.975995 88.975995 0 0 0 12.798618-14.846397v0.511944c-1.023889 9.215005-2.047779 18.43001-2.559724 27.133071z m1.02389 5.119448c-1.535834 6.655282-3.583613 13.822508-5.119448 20.477789l-0.511944-0.511945c-2.559724-2.559724-5.631392-6.143337-8.703061-8.70306 0-0.511945-0.511945-1.535834-0.511945-2.047779s-0.511945-1.535834-0.511944-2.047779a3.89078 3.89078 0 0 1 1.023889-2.047779l6.143337-15.358342c2.559724 3.071668 5.631392 6.655282 8.191116 10.238895z m-9.72695-12.286674l-6.143337 15.870287c-1.023889-4.607503-2.047779-9.72695-3.071668-14.334453l6.143336-5.119447v-0.511945a28.412933 28.412933 0 0 0 3.071669 4.095558z m-27.133071 71.672263c4.095558 0.511945 5.631392 7.167226 3.583613 11.774729l-0.511945-0.511945c-1.535834-1.535834-4.095558-2.559724-5.631392-4.607502 0.511945-3.071668 3.583613-3.583613 2.559724-6.655282z m4.095558 0h9.72695a10.238895 10.238895 0 0 0-2.047779 4.095558h-5.119448a11.160395 11.160395 0 0 0-2.559723-4.095558z m37.88391-5.119447c0.511945-2.047779 1.535834-4.607503 2.047779-6.655282a38.191077 38.191077 0 0 1 3.583613 6.143337l-5.631392 0.511945z m12.798619-1.535834c1.023889-3.071668 2.559724-6.655282 3.583613-9.72695a78.122767 78.122767 0 0 1 5.631392 8.191115q-3.839586 0.767917-9.215005 1.535835z m11.774728-2.559724c-3.071668-3.583613-5.631392-7.679171-8.70306-11.774729-2.047779 4.607503-3.583613 9.215005-5.631392 14.334453a5.580198 5.580198 0 0 0-2.559724 0.511944 122.457181 122.457181 0 0 0-6.655281-10.750839c-1.535834 4.095558-2.559724 8.191116-4.095558 11.774729a24.931709 24.931709 0 0 1-6.143337 0.511944c-0.511945 0-0.511945-0.511945-1.02389-0.511944l-1.023889-1.02389v-1.023889a21.757651 21.757651 0 0 1-1.02389-5.631392c0-1.023889-0.511945-1.535834-0.511944-2.047779a3.071668 3.071668 0 0 1 0.511944-2.047779v0.511945a130.955463 130.955463 0 0 0 2.559724-13.822508l0.511945 0.511944 9.215005 12.286674c1.535834-5.119447 3.583613-10.238895 5.119447-15.358342 3.071668 3.583613 6.143337 7.679171 9.215006 11.262784a186.655051 186.655051 0 0 0 7.167226-17.918066c2.559724 9.72695 5.631392 19.4539 8.191116 29.18085a22.525568 22.525568 0 0 0-5.119448 1.02389z m-9.72695-16.894176c-3.071668-3.583613-6.143337-7.679171-9.215005-11.774729-1.535834 5.119447-3.583613 10.238895-5.119447 15.358342-0.511945 0.511945-0.511945 0-0.511945 0-3.583613-4.095558-6.655282-8.703061-10.238895-12.798619-1.023889 4.607503-2.047779 9.72695-3.071668 14.846398-2.047779-7.679171-3.583613-15.870287-5.119447-24.061403l0.511944 0.511945v0.511945c3.071668 3.071668 6.143337 6.143337 8.703061 9.215005 1.535834-6.655282 3.583613-13.822508 5.119447-20.47779l7.167227 11.262785c2.047779-4.095558 3.583613-8.703061 5.631392-13.310564 3.071668 2.559724 6.655282 6.143337 10.238894 8.703061l0.511945 0.511945 0.511945-0.511945c0.511945 1.535834 1.023889 3.071668 1.535834 5.119447-2.047779 5.631392-4.607503 11.262784-6.655282 16.894177z m3.583614-25.085292l-10.75084-9.215006c-1.535834 4.095558-3.583613 8.191116-5.119447 12.286674-2.559724-4.095558-5.119447-7.679171-7.679171-11.774729 0.511945-6.655282 1.535834-13.310563 2.047779-20.477789 4.095558 4.095558 7.679171 8.703061 11.774729 12.798618a56.87706 56.87706 0 0 1 3.583613-8.191116c2.559724 8.191116 4.607503 16.894176 7.167226 25.085292a1.791807 1.791807 0 0 1-1.023889-0.511944z m-20.989735-31.740574c0.511945-3.071668 0.511945-6.143337 1.02389-9.215005v0.511944a10.238895 10.238895 0 0 1 0.511945-3.583613c0.511945-1.023889 1.023889-1.535834 1.535834-2.559723 1.535834-2.559724 3.071668-5.119447 4.095558-7.167227 2.559724 8.191116 4.607503 16.894176 7.167226 25.597237l-3.071668 7.679171-1.535835-1.535834c-3.583613-3.071668-6.655282-6.655282-9.72695-9.72695z m17.406121 9.72695a20.119428 20.119428 0 0 1-1.023889-3.071669v-3.071668c-0.511945-14.334453-1.023889-28.668905-1.535834-43.515302v-3.071669a3.071668 3.071668 0 0 1 0.511945-2.047779c0.511945-2.047779 1.023889-4.607503 1.535834-6.655281 0.511945 11.262784 1.023889 23.549458 1.535834 35.324186l1.535834 35.324187c-1.023889-3.071668-1.535834-6.143337-2.559724-9.215005z m-3.071668-59.385589a125.324071 125.324071 0 0 1-9.215005 27.645015 91.43333 91.43333 0 0 1-15.358342 21.501679 124.658543 124.658543 0 0 1-19.965845 16.894176 116.057872 116.057872 0 0 1-28.15696-26.621126 98.191 98.191 0 0 1-16.382232-38.395855 172.832543 172.832543 0 0 1-3.583613-32.252518 75.204682 75.204682 0 0 0 48.63475-13.822508 71.672263 71.672263 0 0 0 48.63475 13.822508c-1.535834 10.238895-2.559724 20.989734-4.607503 31.228629z m-75.255876 48.122805v1.535834h-0.511945c-0.511945 0.511945-1.023889 1.023889-1.023889 1.535834l-9.215006 10.238895-3.071668-7.679171c2.559724-8.703061 4.607503-16.894176 7.167226-25.597237a89.02719 89.02719 0 0 0 5.631392 9.215005 84.266103 84.266103 0 0 0 1.02389 10.75084z m-17.406121-50.682529c0.511945 2.047779 1.023889 4.607503 1.535834 6.655281 0 0.511945 0.511945 1.023889 0.511945 2.047779v3.071669c-0.511945 11.262784-1.023889 23.037513-1.535834 34.300297a58.771256 58.771256 0 0 0-0.511945 9.72695v3.071668a7.269615 7.269615 0 0 1-1.02389 3.071669c-1.023889 3.071668-1.535834 6.143337-2.559723 9.215005 1.535834-23.549458 3.071668-47.098916 3.583613-71.160318z m2.047779 58.873644a56.87706 56.87706 0 0 0 3.583613 8.191116c4.095558-4.095558 7.679171-8.703061 11.774729-12.798618 1.023889 6.655282 1.535834 14.334453 2.559724 21.501679 2.559724-3.071668 4.607503-6.143337 7.167226-9.215006 0.511945-0.511945 0.511945-1.023889 1.023889-1.023889l6.143337 15.358342c0.511945 0.511945 0.511945 1.535834 1.02389 2.047779a3.071668 3.071668 0 0 1-0.511945 2.047779 1.587029 1.587029 0 0 0-0.511945 1.023889v1.02389c-0.511945 0.511945-0.511945 1.023889-1.023889 1.023889a58.412894 58.412894 0 0 0-5.631392 5.631392 5.119447 5.119447 0 0 1-2.559724 2.047779c-2.047779-7.167226-4.607503-14.334453-6.655282-21.501678a87.54255 87.54255 0 0 1-6.655281 11.774728c-1.535834-4.095558-3.583613-8.191116-5.119448-12.286673-3.583613 3.583613-7.679171 7.167226-11.262784 10.238895 2.047779-7.167226 4.607503-15.870287 6.655282-25.085293z m-2.559724 54.778087c3.071668-3.583613 6.143337-7.679171 9.215005-11.262784 1.535834 5.119447 3.583613 10.238895 5.119448 15.358342 3.583613-4.095558 6.655282-8.703061 10.238894-12.798618 1.023889 4.095558 1.535834 9.215005 2.559724 13.310563 0 0.511945 0.511945 1.023889 0.511945 2.047779s-0.511945 1.535834-0.511945 2.047779c-0.511945 1.535834-0.511945 3.071668-1.023889 4.607502 0 0.511945-0.511945 1.535834-0.511945 2.047779l-1.535834 1.535834a27.030682 27.030682 0 0 0-6.143337-0.511944 107.201228 107.201228 0 0 0-4.095558-11.774729 122.457181 122.457181 0 0 1-6.655282 10.750839 4.607503 4.607503 0 0 1-2.559723-0.511944c-1.535834-4.607503-3.583613-9.215005-5.631392-14.334453-3.071668 3.583613-5.631392 7.679171-8.703061 11.774729l-6.143337-1.535834c2.559724-9.72695 5.631392-19.4539 8.191116-29.18085l7.679171 18.43001z m14.846397 16.382232c-2.047779 0-4.095558-0.511945-5.631392-0.511945 1.023889-2.047779 2.559724-4.095558 3.583614-6.143337 0.511945 2.047779 1.535834 4.095558 2.047778 6.655282z m-12.286673-1.535834c-3.071668-0.511945-6.143337-1.023889-9.72695-1.535835 0-0.511945 0.511945-0.511945 0.511945-1.023889l5.119447-7.167226c1.535834 3.071668 2.559724 6.655282 4.095558 9.72695z m1.023889 2.047778a125.375266 125.375266 0 0 0 27.645016 1.535835h2.047779c1.535834 0 2.559724-0.511945 3.583613 0.511944h-1.023889a16.842982 16.842982 0 0 1 1.535834 3.071669 2.662113 2.662113 0 0 1-1.02389 2.047779 3.89078 3.89078 0 0 0-1.023889 2.047779 58.3617 58.3617 0 0 1-13.310563 1.023889 108.122728 108.122728 0 0 1-13.310563-1.023889 9.419783 9.419783 0 0 0-2.559724-8.191116 5.426614 5.426614 0 0 0-6.655282 1.535834 6.245726 6.245726 0 0 0-1.535834 4.607503c-7.167226-1.535834-14.846397-2.559724-21.501679-4.607503l-4.607502-1.535834c0-0.511945 0-0.511945 0.511944-1.02389v-3.583613c0-0.511945 0.511945-1.023889 0.511945-1.535834s0.511945-1.535834 1.535834-1.535834h1.02389a9.470978 9.470978 0 0 0 3.583613 1.023889 122.866737 122.866737 0 0 0 24.573347 5.631392z m2.559724 5.119448a4.607503 4.607503 0 0 1 0 5.119447c-1.023889 1.023889-2.559724 1.023889-3.071668 2.047779-0.511945-1.535834-3.071668-2.047779-3.071669-3.583613v-2.559724a6.194531 6.194531 0 0 1 3.583613-3.583613c1.535834 0 2.047779 1.535834 2.559724 2.559724z m120.307013-10.238895h1.023889a8.24231 8.24231 0 0 1 6.143337 9.72695l-1.023889-0.511945a7.269615 7.269615 0 0 0-3.071669-1.023889c-1.023889-0.511945-2.047779-0.511945-2.559723-1.535834s0.511945-4.607503-0.511945-6.655282z m9.72695 7.167226a7.32081 7.32081 0 0 0-3.071669-6.143336 7.986338 7.986338 0 0 0-6.143336-3.071669c-0.511945 0-1.023889-0.511945-1.535835-0.511945a6.040948 6.040948 0 0 0-5.119447-0.511944l-6.143337 1.535834c-4.607503-15.870287-8.703061-31.228629-13.310563-47.098916 0.511945-0.511945 0.511945 0 0.511945 0 3.583613 3.071668 7.167226 7.167226 10.750839 10.238895-1.023889-20.477789-1.535834-40.955579-2.559723-61.433368s-1.535834-40.955579-2.559724-61.945313a61.023812 61.023812 0 0 1-10.238895 4.095558h-5.119447c-2.559724 0-4.607503-0.511945-7.167226-0.511945a10.238895 10.238895 0 0 1-3.583614-0.511945c-0.511945 0-1.023889-1.023889-1.023889-1.023889v0.511944a63.993092 63.993092 0 0 1-31.228629-13.822508 66.14326 66.14326 0 0 1-31.228629 13.822508v-0.511944l-0.511945 0.511944c-0.511945 0.511945-1.023889 0.511945-2.047779 0.511945a44.027247 44.027247 0 0 1-8.191115 0.511945h-6.143337a36.96241 36.96241 0 0 1-10.238895-4.607503c-1.535834 41.467524-3.071668 82.423102-5.119447 123.378681h0.511945c3.583613-3.071668 6.655282-7.167226 10.238894-10.238894h0.511945c-4.607503 15.358342-8.703061 31.228629-13.310563 47.098915a28.873683 28.873683 0 0 1-6.143337-2.047779 8.395894 8.395894 0 0 0-6.143337 1.02389 9.163811 9.163811 0 0 0-9.215005 9.215005h-23.037513l0.511945-0.511945c3.071668-2.559724 6.143337-5.631392 9.215005-8.191115 0.511945-0.511945 1.535834-1.023889 1.535834-1.535835v-1.535834c0.511945-14.846397 1.535834-29.18085 2.047779-44.539192 0.511945-11.262784 1.023889-23.037513 1.535834-34.812242 0-4.095558 0.511945-7.679171 0.511945-11.262784 0.511945-15.870287 1.023889-30.204739 2.047779-46.075026s1.023889-31.228629 2.047779-46.586971a11.774729 11.774729 0 0 0-7.167226 2.047779 21.143318 21.143318 0 0 0-5.631393 3.583613c0.511945-8.191116 3.583613-14.334453 10.238895-16.382232a32.559685 32.559685 0 0 1 22.013624 3.071669 77.35485 77.35485 0 0 1 9.215005 4.607503c3.071668 1.535834 5.631392 3.071668 8.703061 4.607502a60.204701 60.204701 0 0 0 21.501678 5.119447l-0.511944 0.511945-5.631392 5.631392a38.549439 38.549439 0 0 0 15.358342-2.047779c0.511945 0 0 0.511945 0 0.511945-1.535834 2.047779-4.095558 4.095558-5.631392 6.143337 9.215005-1.535834 16.894176-4.095558 20.989734-10.238895a103.822392 103.822392 0 0 1 6.655281 9.215005 103.822392 103.822392 0 0 1 6.655282-9.215005c4.095558 6.143337 11.774729 8.703061 20.989734 10.238895a61.433368 61.433368 0 0 1-5.631392-6.143337 47.866833 47.866833 0 0 0 16.894176 2.047779l-0.511945-0.511945a14.53923 14.53923 0 0 1-5.119447-4.607502 60.204701 60.204701 0 0 0 21.501679-5.119448c3.071668-1.535834 5.631392-3.071668 8.703061-4.607502a64.351453 64.351453 0 0 1 19.453899-7.679171 23.037513 23.037513 0 0 1 11.774729 0.511944c6.655282 2.047779 9.215005 8.191116 10.238895 16.382232l-0.511945-0.511945c-1.535834-1.023889-3.583613-2.047779-5.119447-3.071668a11.774729 11.774729 0 0 0-7.167226-2.047779c0.511945 14.846397 1.535834 30.716684 2.047779 46.075026s1.023889 30.716684 2.047779 46.075026 1.535834 30.716684 2.047779 46.075026c0.511945 7.679171 0.511945 15.870287 1.023889 23.037514s1.023889 14.846397 1.023889 21.501678v1.535835c0 0.511945 1.023889 1.023889 1.535835 1.535834 3.583613 3.071668 7.167226 6.143337 10.238894 9.215005h-24.061402v-0.511945z"
    fill="#FCD116" p-id="3866"></path>
  <path
    d="M450.000191 450.617493a74.84632 74.84632 0 0 1-9.72695-8.191115v2.047779c0 5.631392-0.511945 10.750839-0.511945 15.870286-1.023889 18.43001-1.535834 37.88391-2.559724 55.801977-1.023889 24.573347-2.047779 49.658639-3.583613 74.743931 0 0 0.511945-0.511945 0.511945 0l10.750839-10.750839c0.511945-0.511945 1.535834-1.023889 1.535834-1.535835v-2.047779c0-4.607503 0.511945-9.215005 0.511945-13.822507 0.511945-15.358342 1.023889-31.228629 2.047779-47.610861 0.511945-10.750839 1.023889-20.989734 1.02389-31.228629s1.023889-19.965845 1.023889-29.692794v-2.047779s-1.023889-1.023889-1.023889-1.535835z m-13.310564-8.191115v-2.559724c0-0.511945-1.023889-1.023889-1.535834-1.535834l-12.286673-10.75084c0 3.583613-0.511945 7.679171-0.511945 11.262785s-0.511945 7.167226-0.511945 10.750839c-2.559724 51.194474-4.607503 104.948671-7.167226 157.678979 0 0.511945 0.511945 0 0.511945 0l12.798618-11.262785 2.047779-2.047779v-2.559723c0-5.631392 0.511945-11.262784 0.511945-16.894177 1.023889-19.4539 1.535834-38.9078 2.559723-58.361699 2.047779-25.085292 2.559724-48.63475 3.583613-73.720042z"
    fill="#FCD116" p-id="3867"></path>
</svg>
