<svg t="1772910068975" class="icon" viewBox="0 0 1024 1024" version="1.1" xmlns="http://www.w3.org/2000/svg" p-id="7447"
  width="144" height="144">
  <path
    d="M512.547479 1014.822926c-134.679488 0-261.094637-52.182359-355.805436-147.002863A499.736597 499.736597 0 0 1 9.73918 512.014627c0-134.679488 52.182359-261.094637 147.002863-355.805436A499.736597 499.736597 0 0 1 512.547479 9.206329c134.679488 0 261.094637 52.182359 355.805436 147.002862A499.736597 499.736597 0 0 1 1015.355778 512.014627c0 134.679488-52.182359 261.094637-147.002863 355.805436A499.736597 499.736597 0 0 1 512.547479 1014.822926z"
    fill="#FFFFFF" p-id="7448"></path>
  <path
    d="M512.547479 18.348298c-132.266008 0-256.340813 51.231595-349.36949 144.296839A490.667764 490.667764 0 0 0 18.88115 512.014627c0 132.266008 51.231595 256.340813 144.296839 349.36949A490.631196 490.631196 0 0 0 512.547479 1005.680957c132.266008 0 256.340813-51.231595 349.36949-144.29684A490.667764 490.667764 0 0 0 1006.213809 512.014627c0-132.266008-51.231595-256.340813-144.29684-349.36949A490.631196 490.631196 0 0 0 512.547479 18.348298m0-18.283939c283.547313 0 511.950268 228.402955 511.950268 511.950268s-228.402955 511.950268-511.950268 511.950268S0.597211 795.56194 0.597211 512.014627 229.000167 0.064359 512.547479 0.064359z"
    fill="#DEDEDE" p-id="7449"></path>
  <path d="M431.25709 1017.528949a512.718193 512.718193 0 0 0 563.949788-334.486365H431.25709z" fill="#231815"
    p-id="7450"></path>
  <path d="M431.25709 341.571756h564.169195A512.718193 512.718193 0 0 0 431.25709 6.500306z" fill="#009C42" p-id="7451">
  </path>
  <path d="M431.25709 341.571756V6.500306a511.950268 511.950268 0 0 0 0 1011.06521z" fill="#CC303C" p-id="7452"></path>
</svg>
