<svg t="1772909959533" class="icon" viewBox="0 0 1024 1024" version="1.1" xmlns="http://www.w3.org/2000/svg" p-id="6843"
  width="144" height="144">
  <path
    d="M88.917333 409.6a435.968 435.968 0 0 1 127.488-218.112 430.208 430.208 0 0 1 226.346667-109.653333 428.458667 428.458667 0 0 1 248.533333 35.925333 432.896 432.896 0 0 1 186.666667 169.301333 437.973333 437.973333 0 0 1-22.613333 483.882667 431.957333 431.957333 0 0 1-201.6 150.869333c-80.554667 29.013333-167.850667 33.28-250.794667 12.202667a427.349333 427.349333 0 0 1-151.893333-71.637333 431.189333 431.189333 0 0 1-113.066667-124.885334A435.968 435.968 0 0 1 88.874667 409.6z"
    fill="#F7F8F8" p-id="6844"></path>
  <path
    d="M908.245333 344.277333h-329.130666v65.237334h349.952a461.013333 461.013333 0 0 0-20.821334-65.237334z m-84.266666-135.381333h-244.906667v66.858667H874.666667a437.162667 437.162667 0 0 0-50.688-66.858667z m-615.68 602.88h614.058666c19.669333-20.565333 37.546667-42.965333 53.333334-66.816H157.141333c15.488 24.106667 33.365333 46.506667 53.333334 66.858667h-2.133334zM616.96 85.077333a422.954667 422.954667 0 0 0-37.888-8.234666v65.237333h166.997333a400.085333 400.085333 0 0 0-129.109333-54.826667v-2.176z m320.085333 393.514667h-357.973333v66.901333H938.666667a400.384 400.384 0 0 0 0-66.901333h-1.621334z m-814.08 198.4h784.213334c8.533333-20.522667 15.274667-41.813333 20.266666-63.573333V610.133333H101.632c5.162667 22.869333 12.330667 45.226667 21.333333 66.858667z m290.218667 255.445333a398.336 398.336 0 0 0 75.221333 14.805334h53.333334a409.6 409.6 0 0 0 200.106666-66.858667H287.232a414.976 414.976 0 0 0 125.866667 54.784"
    fill="#E72D14" p-id="6845"></path>
  <path
    d="M526.805333 514.56l-8.96-6.4-8.96 6.4 3.157334-10.666667-8.96-6.4h11.093333l3.669333-11.264 3.712 11.221334h11.050667l-8.96 6.4 3.157333 10.752zM482.56 171.050667l3.157333 12.8-8.96-6.912-8.96 6.954666 3.2-11.264-8.96-6.4h11.050667l3.669333-11.264 3.712 11.264h11.093334l-8.96 4.821334z m0 98.474666l3.157333 10.666667-8.96-6.954667-8.96 6.997334 3.2-10.709334-8.96-6.954666h11.050667l3.669333-10.709334 3.712 10.666667h11.093334l-8.96 6.997333z m0 95.786667l3.712 11.221333-9.514667-6.954666-8.96 6.954666 3.712-11.221333-9.514666-6.4h11.605333l3.157333-10.709333 3.712 10.666666h10.026667l-7.936 6.442667z m0 107.050667l-8.96-6.4-8.96 6.4 3.157333-10.709334-7.381333-10.197333h11.093333l3.669334-10.666667 3.2 10.666667h11.562666l-9.472 6.954667 2.133334 13.952z m-43.221333-253.696l3.712 10.666666-8.96-6.4-9.514667 6.4 3.712-10.666666-8.96-6.4h11.093333l3.669334-11.264 3.157333 11.264h11.605333l-9.514666 6.4z m0 95.274666l3.712 10.666667-8.96-6.4-9.514667 6.4 3.712-10.666667-8.96-6.954666h11.093333l3.669334-10.709334 3.157333 10.666667h11.605333l-9.514666 6.997333z m0 97.408l3.712 10.666667-8.96-6.912-9.514667 6.954667 3.712-10.709334-8.96-6.954666h11.093333l3.669334-10.709334 3.157333 10.666667h11.605333l-9.514666 6.997333z m3.712 103.253334l-8.96-6.4-9.514667 6.4 3.712-10.666667-8.96-6.4h11.093333l3.669334-11.264 3.157333 11.221333h11.605333l-9.514666 7.509334 3.712 9.642666z m-44.8-343.552l3.669333 12.8-8.96-6.912-9.472 6.954666 3.669333-11.264-8.96-6.4h12.117334l3.712-11.264 3.157333 11.264h11.605333l-10.538666 4.821334z m0 98.474666l3.669333 10.666667-8.96-6.954667-9.472 6.997334 3.669333-10.709334-8.96-6.954666h12.117334l3.712-10.709334 3.157333 10.666667h11.605333l-10.538666 6.997333z m0 95.786667l3.157333 11.221333-11.093333-6.954666-8.96 6.954666 3.157333-11.221333-8.96-6.4h14.762667V348.16l3.712 10.666667h11.093333l-6.869333 6.442666z m0 107.050667l-7.936-7.509334-9.472 6.4 3.669333-10.666666-7.893333-9.088h13.696v-8.576l3.157333 10.666666h11.093333l-8.96 6.997334 2.645334 11.776z m-44.8-347.904l3.669333 11.264-7.381333-5.376-8.96 6.954666 3.669333-11.221333-6.826667-9.088h11.093334l3.114666-10.709333 3.712 10.666666h11.093334l-13.226667 7.509334z m0 95.274666l3.669333 10.709334-9.472-6.4-8.96 6.4 3.669333-10.666667-4.736-7.509333h11.093334l3.114666-11.264 3.712 11.264h11.093334l-13.226667 7.466666z m0 95.274667l3.669333 10.666667-9.472-6.4-8.96 6.4 3.669333-10.666667-4.736-8.021333h11.093334l3.114666-10.709334 3.712 10.666667h11.093334l-13.226667 8.064z m0 97.408l3.669333 10.666667-9.472-6.912-8.96 6.954666 3.669333-10.709333-4.736-8.021333h11.093334l3.114666-10.709334 3.712 10.666667h11.093334l-13.226667 8.064z m3.669333 103.253333l-9.472-6.4-8.96 6.4 3.669333-10.666666-4.736-7.509334h11.093334l3.114666-11.221333 3.712 11.221333h11.093334l-11.093334 7.509334 1.578667 10.666666z m-42.666667-347.861333l3.669334 10.709333-9.514667-6.4-8.96 6.4 3.712-10.666666-9.514667-6.997334h11.605334l3.157333-10.666666 3.712 10.666666h11.093333l-8.96 6.954667z m0 97.962667l3.669334 10.666666-9.514667-6.4-8.96 6.4 3.712-10.666666-9.514667-6.4h11.605334l3.157333-10.752 3.712 10.709333h11.093333l-8.96 6.4z m0 96.341333l3.669334 10.666667-8.96-6.4-9.514667 6.4 3.712-10.666667-10.026667-6.954667h11.093334l3.669333-10.709333 3.157333 10.666667h11.605334l-8.448 6.997333z m0 107.008l-8.96-6.954667-8.96 6.954667 3.669334-10.666667-7.936-6.954666h11.605333l3.157333-10.709334 3.712 10.666667h11.093334l-8.96 6.954667 1.536 10.709333z m-42.752-250.453333l3.2 10.666666-8.96-6.4-8.96 6.4 3.669334-10.666666-9.472-6.4h11.562666l3.2-11.264 3.669334 11.264h11.093333l-8.96 6.4z m0 95.274666l3.2 10.666667-8.96-6.4-8.96 6.4 3.669334-10.666667-9.472-6.954666h11.562666l3.2-10.709334 3.669334 10.666667h11.093333l-8.96 6.997333z m0 97.408l3.2 10.666667-8.96-6.912-8.96 6.954667 3.669334-10.709334-9.472-6.954666h11.562666l3.2-10.709334 3.669334 10.666667h11.093333l-8.96 6.997333z m3.2 103.253334l-8.96-6.4-8.96 6.4 3.669334-10.666667-9.472-6.4h11.562666l3.2-11.264 3.669334 11.221333h11.093333l-8.96 7.509334 3.157333 9.642666zM232.106667 265.216l3.157333 10.709333-8.96-6.954666-8.96 6.954666 3.157333-10.666666-8.96-6.997334h10.026667l3.157333-10.666666 3.669334 10.666666h11.093333l-7.381333 6.954667z m0 95.829333l3.669333 10.666667-8.96-6.4-9.472 6.4 3.669333-10.666667-8.96-6.4h11.093334l1.066666-10.24 3.157334 11.264h11.093333l-6.4 5.376z m0 107.008l-8.96-6.4-8.96 6.4 3.157333-10.666666-8.96-5.888h11.093333l3.669334-10.709334 3.669333 10.666667h11.093333l-8.96 6.954667 3.157334 9.642666z m198.186666-351.061333l3.712-10.709333 3.157334 10.666666h11.605333l-9.514667 6.442667 3.712 11.264-8.96-4.266667-9.514666 6.912 3.712-11.221333-8.96-6.4 11.093333-2.688z m83.84 287.402667l3.669334-10.709334 3.712 10.666667h11.050666l-8.96 6.997333 3.157334 10.666667-8.96-6.912-8.96 6.954667 3.157333-10.709334-8.96-6.954666h11.093333z m0-97.408l3.669334-10.709334 3.712 10.666667h11.050666l-8.96 6.997333 3.157334 10.666667-8.96-6.4-8.96 6.4 3.157333-10.666667-8.96-6.954666h11.093333z m0-94.72l3.669334-11.264 3.712 11.264h11.050666l-8.96 6.4 3.157334 10.666666-8.96-6.4-8.96 6.4 3.157333-10.666666-8.96-6.4h11.093333z m0-95.274667l3.669334-10.709333 3.712 10.666666h11.050666l-8.96 6.442667 3.157334 11.264-8.96-4.266667-8.96 6.912 3.157333-11.221333-8.96-6.4 11.093333-2.688zM187.861333 313.898667l3.157334 10.666666-8.96-6.4-8.96 6.4 3.157333-10.666666-8.96-6.954667h12.117333l3.712-10.709333 3.157334 10.666666h11.605333l-10.026667 6.997334z m0 97.408l3.157334 10.666666-8.96-6.912-8.96 6.954667 3.157333-10.709333-8.96-6.954667h12.117333l3.712-10.709333 3.157334 10.666666h11.605333l-10.026667 6.997334z m3.157334 103.253333l-8.96-6.4-8.96 6.4 3.157333-10.666667-8.96-6.4h12.117333l3.712-11.264 3.157334 11.221334h11.605333l-10.026667 7.509333 3.157334 9.642667zM145.706667 359.424l3.157333 10.666667-8.96-6.4-8.96 6.4 3.157333-10.666667-7.381333-6.4h11.605333l1.578667-8.576 3.669333 11.221333h11.093334l-8.96 3.754667z m2.602666 107.050667l-8.96-6.954667-9.472 6.954667 3.712-10.709334-6.869333-8.021333h11.093333l3.669334-10.709333 3.157333 10.666666h11.093333l-8.96 6.997334 1.536 11.776z m-41.088 49.237333l-8.96-6.4-9.514666 6.4 3.712-10.709333-8.96-6.4h11.093333l3.669333-11.264 3.157334 11.221333h11.093333l-8.96 6.4 3.669333 10.752zM558.933333 83.2l-39.04-6.442667-76.928 4.821334A418.474667 418.474667 0 0 0 232.106667 172.586667v4.821333-2.688c-14.165333 11.392-27.392 23.893333-39.552 37.504h6.314666l-8.96 6.4 3.2 10.666667-8.96-6.4-4.778666 2.688c-8.405333 9.642667-16.341333 20.352-24.234667 31.061333l-5.802667 8.021333v7.466667l-5.248-3.2a423.04 423.04 0 0 0-55.893333 133.802667h6.826667l3.712-10.666667 3.157333 10.666667h11.093333l-8.96 6.954666 3.669334 10.666667-8.96-6.912-9.472 6.954667 3.669333-10.666667-5.248-4.309333A417.664 417.664 0 0 0 77.653333 537.6H558.933333V83.2z"
    fill="#073470" p-id="6846"></path>
</svg>
