<svg t="1772909982014" class="icon" viewBox="0 0 1024 1024" version="1.1" xmlns="http://www.w3.org/2000/svg" p-id="7005"
  width="144" height="144">
  <path
    d="M6.4 505.6c0 281.6 230.4 505.6 505.6 505.6 281.6 0 505.6-230.4 505.6-505.6C1024 230.4 793.6 0 512 0 236.8 0 6.4 230.4 6.4 505.6z m0 0"
    fill="#F0F0F0" p-id="7006"></path>
  <path d="M1024 505.6C1024 288 883.2 102.4 691.2 32v953.6c192-70.4 332.8-256 332.8-480z m0 0" fill="#D80027"
    p-id="7007"></path>
  <path d="M6.4 505.6c0 217.6 140.8 403.2 332.8 473.6V32C147.2 102.4 6.4 288 6.4 505.6z m0 0" fill="#0052B4"
    p-id="7008"></path>
</svg>
