<svg t="1772909811445" class="icon" viewBox="0 0 1024 1024" version="1.1" xmlns="http://www.w3.org/2000/svg" p-id="6681"
  width="144" height="144">
  <path
    d="M0.000427 512c0 282.752 229.248 512 512 512s512-229.248 512-512S794.752427 0 512.000427 0 0.000427 229.248 0.000427 512z"
    fill="#F0F0F0" p-id="6682"></path>
  <path
    d="M992.171093 690.090667c20.565333-55.466667 31.829333-115.456 31.829334-178.090667 0-62.634667-11.264-122.624-31.829334-178.090667H31.82976A510.890667 510.890667 0 0 0 0.000427 512c0 62.634667 11.264 122.624 31.829333 178.090667L512.000427 734.592l480.170666-44.501333z"
    fill="#3569CC" p-id="6683"></path>
  <path
    d="M512.000427 1024c220.16 0 407.808-138.922667 480.170666-333.909333H31.82976C104.192427 885.077333 291.840427 1024 512.000427 1024z"
    fill="#E72D14" p-id="6684"></path>
</svg>
