<svg t="1772909763913" class="icon" viewBox="0 0 1024 1024" version="1.1" xmlns="http://www.w3.org/2000/svg" p-id="6520"
  width="144" height="144">
  <path d="M0 512a512 512 0 1 0 1024 0 512 512 0 0 0-1024 0z" fill="#E60012" p-id="6521"></path>
  <path
    d="M416.725333 441.173333L352.981333 256l-63.744 185.088H85.333333l164.736 113.109333-63.36 184.234667 166.272-113.92 166.016 113.92-63.36-184.32 165.290667-113.024-204.202667 0.085333z m486.997334-47.488c-19.285333 0-34.901333 14.72-34.901334 32.853334 0 18.133333 15.616 32.938667 34.901334 32.938666 19.328 0 34.944-14.72 34.944-32.896a32.298667 32.298667 0 0 0-2.645334-12.8 30.933333 30.933333 0 0 0-7.466666-10.581333 35.84 35.84 0 0 0-24.832-9.6v0.085333z m-110.677334-114.261333a34.005333 34.005333 0 0 0-18.986666 5.12 36.352 36.352 0 0 0-13.482667 14.976 31.872 31.872 0 0 0-2.133333 19.285333c1.365333 6.485333 4.650667 12.373333 9.429333 16.682667a36.650667 36.650667 0 0 0 38.144 7.253333 31.616 31.616 0 0 0 15.402667-11.648 34.133333 34.133333 0 0 0 6.272-18.773333c0-18.048-15.445333-32.682667-34.645334-32.896z m0 422.826667c-19.114667-0.213333-34.858667 14.208-35.242666 32.256-0.298667 18.048 14.848 33.024 34.048 33.493333 19.114667 0.512 35.157333-13.653333 35.84-31.616a32.426667 32.426667 0 0 0-9.642667-24.021333 36.053333 36.053333 0 0 0-25.002667-10.112z m110.677334-123.093334c-19.285333 0-34.901333 14.72-34.901334 32.896 0 18.176 15.616 32.896 34.901334 32.896 19.328 0 34.944-14.72 34.944-32.853333a32.341333 32.341333 0 0 0-2.645334-12.885333 30.933333 30.933333 0 0 0-7.466666-10.496 35.84 35.84 0 0 0-24.832-9.6v0.042666z"
    fill="#FFDE00" p-id="6522"></path>
</svg>
